<svg fill="#000000" xmlns="http://www.w3.org/2000/svg"  viewBox="0 0 50 50" width="50px" height="50px"><path d="M46.6,3.4c-1-1-2.2-1.4-3.4-1.4c-1.2,0-2.5,0.5-3.4,1.4c0,0-0.1,0.1-0.2,0.2c0,0,0,0,0,0L4.3,38.8c-0.1,0.1-0.2,0.3-0.3,0.4	l-2,7.5c-0.1,0.3,0,0.7,0.3,1C2.5,47.9,2.7,48,3,48c0.1,0,0.2,0,0.3,0l7.5-2c0.2,0,0.3-0.1,0.4-0.3l35.2-35.2c0,0,0,0,0,0	c0.1-0.1,0.2-0.2,0.2-0.2C48.5,8.4,48.5,5.3,46.6,3.4z M45.2,4.8c1.1,1.1,1.1,2.9,0,4.1c-0.3,0.3-0.6,0.6-0.9,0.9l-4.1-4.1	c0.5-0.5,0.9-0.9,0.9-0.9c0.5-0.5,1.3-0.8,2-0.8C43.9,4,44.6,4.3,45.2,4.8z M5.6,41.2l3.2,3.2l-4.4,1.2L5.6,41.2z"/></svg>